<svg version="1.1" id="Layer_1" xmlns="http://www.w3.org/2000/svg" xmlns:xlink="http://www.w3.org/1999/xlink" x="0px" y="0px"
	 width="25" height="25" viewBox="0 0 1000 1000" enable-background="new 0 0 1000 1000" xml:space="preserve">
<path fill="#221D28" opacity="1.000000" stroke="none" 
	d="
M442.000000,1001.000000 
	C294.666656,1001.000000 147.833328,1001.000000 1.000000,1001.000000 
	C1.000000,667.666687 1.000000,334.333344 1.000000,1.000000 
	C334.333344,1.000000 667.666687,1.000000 1001.000000,1.000000 
	C1001.000000,334.333344 1001.000000,667.666687 1001.000000,1001.000000 
	C814.833313,1001.000000 628.666687,1001.000000 442.000000,1001.000000 
M673.238464,156.057678 
	C673.271667,156.554123 673.304810,157.050568 673.700317,158.128799 
	C674.167847,158.817184 674.621826,159.515228 675.104919,160.192535 
	C735.970886,245.528748 758.570862,340.253693 742.548462,443.602966 
	C730.556152,520.956665 696.454468,587.979675 642.341125,644.614014 
	C598.353455,690.650818 545.982971,723.500122 485.380035,743.123596 
	C428.089935,761.674438 369.614349,765.931824 310.199738,756.844299 
	C267.554138,750.321716 227.189636,736.708557 189.297699,715.989319 
	C180.619659,711.244202 172.124329,706.164978 162.414734,700.590576 
	C163.652512,702.417053 164.120239,703.211487 164.686569,703.928040 
	C202.855820,752.222168 249.755325,789.561096 305.849701,814.909302 
	C379.045502,847.985352 455.400299,857.052612 534.240234,841.876526 
	C617.438965,825.861389 687.619995,785.935852 744.168518,722.942749 
	C799.483643,661.323547 831.142578,588.934631 839.201416,506.393524 
	C844.777832,449.277893 837.641357,393.729340 817.906128,339.889801 
	C796.533325,281.582764 762.743591,231.443314 716.590454,189.938385 
	C703.283997,177.972076 688.358765,167.805908 674.013184,156.356766 
	C673.700378,156.127747 673.628418,155.838806 673.690613,155.858994 
	C673.532532,155.698792 673.374512,155.538589 673.216431,155.378387 
	C673.416504,155.418121 673.616638,155.457870 673.238464,156.057678 
z"/>
<path fill="#B38BD1" opacity="1.000000" stroke="none" 
	d="
M674.175720,156.814453 
	C688.358765,167.805908 703.283997,177.972076 716.590454,189.938385 
	C762.743591,231.443314 796.533325,281.582764 817.906128,339.889801 
	C837.641357,393.729340 844.777832,449.277893 839.201416,506.393524 
	C831.142578,588.934631 799.483643,661.323547 744.168518,722.942749 
	C687.619995,785.935852 617.438965,825.861389 534.240234,841.876526 
	C455.400299,857.052612 379.045502,847.985352 305.849701,814.909302 
	C249.755325,789.561096 202.855820,752.222168 164.686569,703.928040 
	C164.120239,703.211487 163.652512,702.417053 162.414734,700.590576 
	C172.124329,706.164978 180.619659,711.244202 189.297699,715.989319 
	C227.189636,736.708557 267.554138,750.321716 310.199738,756.844299 
	C369.614349,765.931824 428.089935,761.674438 485.380035,743.123596 
	C545.982971,723.500122 598.353455,690.650818 642.341125,644.614014 
	C696.454468,587.979675 730.556152,520.956665 742.548462,443.602966 
	C758.570862,340.253693 735.970886,245.528748 675.104919,160.192535 
	C674.621826,159.515228 674.167847,158.817184 673.728943,157.655182 
	C673.896912,157.059189 674.036316,156.936813 674.175720,156.814453 
z"/>
<path fill="#B38BD1" opacity="1.000000" stroke="none" 
	d="
M673.816711,155.497604 
	C673.616638,155.457870 673.416504,155.418121 673.216431,155.378387 
	C673.374512,155.538589 673.532532,155.698792 673.720764,155.703674 
	C673.750916,155.548370 673.816711,155.497604 673.816711,155.497604 
z"/>
<path fill="#B38BD1" opacity="1.000000" stroke="none" 
	d="
M673.547729,157.364288 
	C673.304810,157.050568 673.271667,156.554123 673.527588,155.777649 
	C673.816711,155.497604 673.750916,155.548370 673.774170,155.519135 
	C673.628418,155.838806 673.700378,156.127747 674.094482,156.585602 
	C674.036316,156.936813 673.896912,157.059189 673.547729,157.364288 
z"/>
</svg>